<svg width="230" height="217" viewBox="0 0 230 217" fill="none" xmlns="http://www.w3.org/2000/svg">
<path d="M97.8452 2.08095C95.3492 3.13512 90.6199 6.56117 87.3356 9.85547L81.2926 15.6534L78.1397 12.0956L74.9868 8.40598L77.7456 12.8862L80.373 17.3664L74.1986 25.4045C67.6301 33.8379 61.4557 43.589 57.646 51.2318C55.2813 55.9756 48.3187 75.7413 46.8736 81.5393C45.8227 86.0195 45.6913 100.514 46.7423 109.08L47.5305 116.063L39.7796 123.97C20.5996 143.735 15.3448 174.965 30.0583 181.159C35.1817 183.267 42.5384 183.662 42.5384 181.817C42.5384 181.027 43.5894 180.632 44.9031 180.632C46.0854 180.763 50.9461 178.655 55.4127 175.888C60.0106 173.252 64.0831 171.144 64.3458 171.144C65.1341 171.144 68.1556 168.772 73.0163 164.16C75.1182 162.184 77.4828 160.602 78.1397 160.602C78.7965 160.602 79.322 160.075 79.322 159.548C79.322 158.889 82.4749 155.068 86.2846 151.115C94.1668 142.681 94.4296 142.286 100.867 133.326C103.494 129.636 105.596 126.21 105.596 125.551C105.596 124.892 107.567 120.148 110.063 115.141C112.559 110.002 115.712 103.018 117.025 99.4602C119.915 91.8175 121.229 91.0268 124.645 94.5847C129.111 99.0649 130.162 100.646 129.637 102.227C129.243 103.15 130.031 105.258 131.213 107.103C134.103 111.451 133.184 112.769 120.572 122.125C107.567 131.876 99.553 140.573 93.7727 151.51C89.1748 160.47 80.6357 169.826 77.3515 169.826C76.3005 169.826 75.3809 170.353 75.3809 171.144C75.3809 171.803 74.4613 172.462 73.4104 172.462C72.3594 172.462 71.4398 172.989 71.4398 173.648C71.4398 174.307 70.3889 175.229 69.2065 175.624C66.7105 176.547 65.3968 177.337 55.6754 183.662C49.8951 187.352 40.3051 192.623 24.8035 200.661C20.4682 202.901 16.6585 205.141 16.2644 205.536C15.8703 205.932 12.1919 208.435 8.11946 211.203C3.91562 213.97 0.5 216.473 0.5 216.869C0.5 217.264 1.8137 216.737 3.52151 215.683C5.09795 214.629 11.141 211.203 16.9213 208.04C22.7015 204.878 30.4524 200.661 33.9994 198.684C37.6777 196.576 42.6698 193.809 45.2972 192.359C47.9246 190.91 58.5656 184.716 68.9438 178.391L87.8611 167.191L88.2552 170.749C88.912 175.492 90.6199 177.601 93.51 177.074C94.6923 176.81 96.1374 176.547 96.6629 176.547C100.341 176.151 127.929 144.79 127.929 141.1C127.929 137.806 142.248 126.737 144.087 128.45C144.482 128.845 144.482 132.008 144.087 135.302C143.299 142.945 143.299 142.022 143.562 146.503C143.693 149.665 144.219 150.061 147.634 149.797C149.868 149.665 152.627 148.479 153.809 147.162C156.83 143.735 158.144 133.457 156.568 125.683C155.517 120.939 155.517 119.094 156.699 118.699C157.487 118.435 159.064 117.381 159.983 116.327C161.034 115.273 162.479 114.482 163.136 114.482C163.793 114.482 165.107 113.56 166.026 112.506C168.785 109.211 169.967 112.506 169.967 123.311C169.967 128.45 170.493 134.38 171.281 136.224C172.332 139.123 171.675 141.495 167.077 150.983C162.611 160.47 161.691 163.633 161.822 169.958C162.085 189.856 176.142 194.731 190.067 179.709C195.059 174.438 199.92 164.687 200.577 158.757C200.971 156.122 201.365 153.75 201.628 153.618C201.89 153.487 206.094 151.378 211.086 149.006C218.574 145.449 220.676 143.604 224.617 137.542C228.296 131.744 229.347 128.714 229.478 123.179C229.741 116.195 227.639 110.134 223.829 106.839C221.333 104.731 210.692 105.917 205.043 108.684C202.941 109.87 200.708 110.265 200.182 109.607C199.132 108.552 198.343 103.018 196.898 87.3372C196.635 83.5158 196.11 79.1674 195.716 77.4543C195.322 75.7413 194.665 71.1293 194.402 67.3079C192.563 47.6739 185.995 38.4499 176.799 42.2713C174.828 43.1937 170.23 46.8833 166.552 50.7047C156.436 61.1146 151.313 75.4778 149.605 98.1425C149.08 103.94 148.291 109.475 147.897 110.134C147.372 110.924 144.744 111.979 142.117 112.374C137.519 113.033 137.256 112.901 136.468 108.816C135.548 104.599 132.264 97.3519 130.688 96.0341C130.294 95.6388 128.06 93.1352 125.696 90.4997C121.886 86.0195 121.623 85.0971 122.806 81.2757C125.302 73.2376 125.564 71.6564 126.615 59.7969C128.06 44.9067 127.141 30.9389 123.856 18.5524C121.098 8.14244 118.47 3.13512 114.661 1.15854C111.245 -0.686264 103.1 -0.290955 97.8452 2.08095ZM117.025 5.77055C120.704 9.85547 122.411 15.917 124.119 30.1483C125.302 40.1629 124.776 59.2699 123.331 61.9053C122.937 62.4324 122.543 65.3313 122.411 68.2303C122.28 71.2611 121.886 73.6329 121.36 73.6329C120.835 73.6329 120.047 76.0048 119.521 78.9038C118.733 84.1747 118.602 84.1747 113.084 84.0429C107.567 83.9111 99.553 85.3606 91.5394 87.8643C87.8611 89.0502 87.2042 88.9185 86.5474 86.6783C86.0219 85.3606 86.0219 83.7794 86.2846 83.2523C87.467 81.2757 88.912 62.3006 88.7807 49.7823C88.6493 41.6124 87.7297 34.4968 86.1533 29.3577C83.6572 21.4514 84.1827 15.6534 87.2042 15.6534C87.8611 15.6534 88.5179 15.1263 88.5179 14.3357C88.5179 12.8862 94.8237 6.4294 96.2688 6.4294C96.9256 6.4294 98.1079 5.63876 99.0275 4.58459C102.443 0.367905 112.953 1.15854 117.025 5.77055ZM84.7082 30.4118C85.7592 34.2332 85.8905 40.4265 85.2337 49.2552C83.7886 66.649 83.6572 68.6256 81.2926 80.7486C79.1907 92.081 75.1182 98.1425 67.3674 101.437C65.2654 102.227 63.5576 103.282 63.5576 103.809C63.5576 105.126 55.5441 109.607 54.7558 108.684C54.2304 108.289 53.7049 105.39 53.4421 102.227C53.3108 99.1967 52.7853 94.3211 52.5225 91.4221C52.1284 88.5231 52.6539 84.4382 53.7049 82.1981C54.6245 80.0898 55.8068 76.4001 56.0695 74.2918C57.3832 65.9902 61.193 54.3943 63.4263 51.8906C64.6086 50.4411 67.1046 46.2244 68.8124 42.6666C70.6516 38.977 72.6222 35.4192 73.4104 34.6285C74.0672 33.8379 76.1692 31.3342 77.877 29.0941C79.5848 26.7222 81.5553 24.8774 82.0808 24.8774C82.7376 24.8774 83.7886 27.3811 84.7082 30.4118ZM185.732 47.0151C187.308 48.3328 188.885 50.8364 189.016 52.6813C189.279 54.3943 189.804 57.8203 190.198 60.324C191.118 64.936 191.643 70.4704 193.088 92.7398C193.483 99.9873 194.402 106.839 195.059 108.025C196.767 111.451 195.059 115.273 187.965 122.652C184.155 126.605 180.083 131.085 178.901 132.667C177.587 134.248 176.01 135.566 175.222 135.566C173.777 135.566 171.281 130.295 171.938 128.977C173.12 127 173.777 108.289 172.726 106.708C171.15 104.336 165.895 106.312 159.458 111.847C156.962 114.087 154.334 115.8 153.809 115.8C153.152 115.8 153.021 112.11 153.283 107.498C153.677 103.018 154.072 99.3284 154.203 99.3284C154.203 99.3284 154.597 95.1117 154.991 90.1044C156.042 77.059 156.174 76.2684 157.881 70.3387C160.64 60.7193 175.091 45.4338 181.922 44.7749C182.448 44.6432 184.155 45.6974 185.732 47.0151ZM115.843 90.368C115.58 90.895 114.661 92.8716 113.872 94.7164C113.216 96.5612 111.376 100.383 110.063 103.282C108.749 106.181 107.567 109.08 107.435 109.87C106.778 113.56 105.202 117.118 104.151 117.118C103.494 117.118 102.969 117.908 102.969 118.831C102.969 121.071 94.2982 133.853 88.6493 139.914C78.1397 151.246 65.3968 163.238 64.0831 163.238C63.2949 163.238 61.8498 164.16 60.9302 165.214C60.0106 166.268 58.6969 166.796 57.9087 166.268C57.1205 165.741 56.8578 166.268 57.3832 167.586C58.1715 169.826 56.2009 170.749 49.1069 171.539C47.2677 171.671 45.1658 172.593 44.3776 173.648C42.407 176.283 32.0288 176.283 30.7151 173.779C30.1896 172.725 29.1387 170.617 28.4818 169.036C27.0368 166.268 27.0368 158.494 28.6132 157.044C29.0073 156.649 29.4014 155.068 29.4014 153.75C29.4014 149.929 38.2032 133.853 41.2247 131.876C42.6698 130.954 43.8521 129.372 43.8521 128.318C43.8521 127.132 45.4286 125.683 47.2677 125.024C51.603 123.311 51.7343 123.311 51.7343 125.419C51.7343 126.473 52.9166 128.318 54.3617 129.636C57.646 132.535 64.74 131.612 69.0752 127.659C70.783 126.21 73.1476 123.97 74.4613 122.784C75.6437 121.598 76.6946 119.358 76.6946 117.645C76.6946 116.063 77.6142 114.087 78.6652 113.164C79.7161 112.242 80.6357 110.661 80.6357 109.738C80.6357 108.684 81.5553 105.653 82.869 102.886C84.5768 98.8013 86.416 97.2201 91.6708 94.8482C95.3492 93.2669 99.2903 91.4221 100.341 90.895C102.837 89.4456 116.5 89.0502 115.843 90.368ZM72.7535 106.444C72.7535 107.235 72.228 108.157 71.4398 108.552C70.783 108.948 70.1261 110.397 70.1261 111.715C70.1261 112.901 68.1556 115.932 65.6595 118.304L61.193 122.652L59.091 119.621C56.8578 116.327 57.9087 113.823 62.3753 112.506C63.689 111.979 64.8713 110.793 64.8713 109.738C64.8713 108.684 66.0536 107.894 67.4987 107.894C68.9438 107.894 70.1261 107.235 70.1261 106.576C70.1261 105.785 70.783 105.258 71.4398 105.258C72.228 105.258 72.7535 105.785 72.7535 106.444ZM224.88 112.769C225.537 114.087 225.931 116.327 225.8 117.776C225.668 119.226 225.537 122.784 225.406 125.815C225.143 130.295 224.092 132.271 218.574 138.069C215.027 141.759 211.612 144.79 211.086 144.79C208.59 144.79 205.437 146.371 205.437 147.82C205.437 148.743 204.912 148.743 203.861 147.689C202.941 146.766 202.022 142.945 201.89 139.123C201.759 135.302 201.496 128.845 201.365 124.76C201.233 119.226 201.628 116.722 203.335 115.141C204.518 113.823 205.963 113.164 206.357 113.56C206.751 114.087 208.327 113.56 209.904 112.506C213.845 109.738 223.435 109.87 224.88 112.769ZM145.533 118.962C144.482 122.257 141.329 125.551 138.701 125.815C137.65 126.078 136.205 127 135.68 127.923C133.972 130.558 134.235 126.078 135.943 121.466C137.519 117.118 139.358 115.8 143.299 116.195C145.664 116.327 146.189 116.986 145.533 118.962ZM131.082 123.97C130.556 125.683 129.768 128.186 129.243 129.636C128.06 132.798 117.945 142.286 116.894 141.232C116.5 140.837 115.843 141.495 115.317 142.681C114.923 143.867 113.872 144.79 113.084 144.79C112.296 144.79 108.88 147.162 105.465 150.061C98.3707 156.122 95.7433 156.781 97.1884 152.301C97.7138 150.719 98.5021 149.138 99.0275 148.743C99.4217 148.347 100.998 146.239 102.312 143.867C103.625 141.495 105.202 139.914 105.596 140.178C106.122 140.441 107.304 139.255 108.223 137.542C109.143 135.697 110.588 134.248 111.245 134.248C113.216 134.248 122.543 125.287 121.623 124.365C121.098 123.97 121.623 123.97 122.806 124.365C123.856 124.76 125.827 124.233 127.272 123.179C130.95 120.28 132.133 120.675 131.082 123.97ZM196.767 134.511C196.635 141.232 196.504 147.293 196.373 147.82C196.11 149.402 187.177 147.689 182.973 145.185C179.295 142.945 177.193 139.782 178.506 138.465C178.901 138.069 179.163 138.596 179.163 139.519C179.163 141.364 189.279 131.085 193.22 125.287C194.271 123.706 195.585 122.388 196.11 122.388C196.504 122.388 196.898 127.923 196.767 134.511ZM153.152 135.961C152.758 141.364 152.101 143.472 150.787 143.472C148.817 143.472 148.291 136.488 149.868 128.977C151.181 121.993 153.677 127.264 153.152 135.961ZM120.572 145.053C119.521 147.03 117.682 149.27 112.953 154.409C111.114 156.386 109.537 158.626 109.537 159.285C109.537 160.075 109.143 160.602 108.618 160.602C107.961 160.602 104.414 163.633 100.473 167.191C96.6629 170.88 92.9845 173.779 92.3277 173.779C91.6708 173.779 91.1453 172.066 91.1453 169.958C91.1453 167.191 92.5904 164.687 96.1374 161.393C98.7648 158.757 101.524 156.649 102.049 156.649C103.1 156.649 113.084 149.006 117.157 145.053C118.076 144.263 119.521 143.472 120.178 143.472C120.966 143.472 121.098 144.263 120.572 145.053ZM184.681 150.588C187.44 151.774 190.724 152.696 192.169 152.696C193.483 152.696 194.928 153.487 195.322 154.541C196.373 157.176 194.008 166.268 190.987 171.408C188.491 175.756 178.901 182.476 175.616 182.213C174.697 182.081 172.857 181.949 171.412 181.817C169.179 181.686 166.814 177.469 167.209 174.57C167.34 174.043 166.814 172.725 166.026 171.935C165.369 171.012 165.107 169.826 165.632 169.299C166.42 168.509 166.814 167.323 167.734 160.998C167.997 159.416 168.785 157.44 169.573 156.386C170.361 155.463 171.412 153.091 171.938 151.115C172.726 148.216 173.514 147.689 176.273 148.084C178.244 148.347 182.053 149.402 184.681 150.588Z" fill="black"/>
</svg>
