<svg width="20" height="20" viewBox="0 0 20 20" fill="none" xmlns="http://www.w3.org/2000/svg">
<path fill-rule="evenodd" clip-rule="evenodd" d="M2.67104 8.28569C3.89022 6.5647 6.26002 4.16675 10.0001 4.16675C13.7401 4.16675 16.1099 6.5647 17.3291 8.28569C17.8008 8.95157 18.0367 9.2845 18.0171 9.95327C17.9975 10.622 17.7289 10.9577 17.1916 11.629C15.8103 13.3549 13.2593 15.8334 10.0001 15.8334C6.74089 15.8334 4.18986 13.3549 2.80858 11.629C2.2713 10.9577 2.00266 10.622 1.98306 9.95327C1.96346 9.2845 2.19932 8.95157 2.67104 8.28569ZM10.0001 13.3334C11.841 13.3334 13.3334 11.841 13.3334 10.0001C13.3334 8.15913 11.841 6.66675 10.0001 6.66675C8.15913 6.66675 6.66674 8.15913 6.66674 10.0001C6.66674 11.841 8.15913 13.3334 10.0001 13.3334Z" fill="white"/>
</svg>
